<mxfile host="65bd71144e">
    <diagram id="URDF5yM-yLJE8CEQNXf-" name="Page-1">
        <mxGraphModel dx="2400" dy="1428" grid="1" gridSize="10" guides="1" tooltips="1" connect="1" arrows="1" fold="1" page="1" pageScale="1" pageWidth="1500" pageHeight="2000" math="0" shadow="0">
            <root>
                <mxCell id="0"/>
                <mxCell id="1" parent="0"/>
                <mxCell id="245" value="" style="rounded=0;whiteSpace=wrap;html=1;fillColor=#18141D;" vertex="1" parent="1">
                    <mxGeometry x="210" y="180" width="1120" height="910" as="geometry"/>
                </mxCell>
                <mxCell id="3" value="" style="endArrow=none;html=1;rounded=0;exitX=0.5;exitY=1;exitDx=0;exitDy=0;entryX=0.292;entryY=0.046;entryDx=0;entryDy=0;fontColor=#000000;entryPerimeter=0;strokeColor=#F0F0F0;" parent="1" source="18" target="73" edge="1">
                    <mxGeometry relative="1" as="geometry">
                        <mxPoint x="950" y="932.4" as="sourcePoint"/>
                        <mxPoint x="1060" y="1032.4" as="targetPoint"/>
                    </mxGeometry>
                </mxCell>
                <mxCell id="4" value="" style="endArrow=none;html=1;rounded=0;exitX=0.5;exitY=1;exitDx=0;exitDy=0;entryX=0;entryY=0.5;entryDx=0;entryDy=0;fontColor=#000000;strokeColor=#F0F0F0;" parent="1" source="18" target="72" edge="1">
                    <mxGeometry relative="1" as="geometry">
                        <mxPoint x="980" y="962.4" as="sourcePoint"/>
                        <mxPoint x="870" y="1012.4" as="targetPoint"/>
                    </mxGeometry>
                </mxCell>
                <mxCell id="5" value="" style="endArrow=none;html=1;rounded=0;exitX=0.5;exitY=1;exitDx=0;exitDy=0;entryX=0.5;entryY=0;entryDx=0;entryDy=0;fontColor=#000000;strokeColor=#F0F0F0;" parent="1" source="18" target="71" edge="1">
                    <mxGeometry relative="1" as="geometry">
                        <mxPoint x="950" y="932.4" as="sourcePoint"/>
                        <mxPoint x="840" y="982.4" as="targetPoint"/>
                    </mxGeometry>
                </mxCell>
                <mxCell id="6" value="Users" style="rounded=0;whiteSpace=wrap;html=1;fontColor=#000000;fillColor=#D8E8FF;strokeColor=none;" parent="1" vertex="1">
                    <mxGeometry x="652.5" y="350" width="120" height="60" as="geometry"/>
                </mxCell>
                <mxCell id="12" value="" style="endArrow=none;html=1;rounded=0;entryX=0.522;entryY=0.99;entryDx=0;entryDy=0;exitX=0.312;exitY=-0.021;exitDx=0;exitDy=0;fontColor=#000000;strokeColor=#F0F0F0;entryPerimeter=0;exitPerimeter=0;" parent="1" source="6" target="164" edge="1">
                    <mxGeometry width="50" height="50" relative="1" as="geometry">
                        <mxPoint x="632.5" y="510" as="sourcePoint"/>
                        <mxPoint x="692.5" y="270" as="targetPoint"/>
                    </mxGeometry>
                </mxCell>
                <mxCell id="13" value="" style="endArrow=none;html=1;rounded=0;entryX=0.944;entryY=0.65;entryDx=0;entryDy=0;exitX=0;exitY=0;exitDx=0;exitDy=0;entryPerimeter=0;fontColor=#000000;" parent="1" source="6" target="107" edge="1">
                    <mxGeometry width="50" height="50" relative="1" as="geometry">
                        <mxPoint x="632.5" y="510" as="sourcePoint"/>
                        <mxPoint x="527.5" y="326" as="targetPoint"/>
                    </mxGeometry>
                </mxCell>
                <mxCell id="14" value="" style="endArrow=none;html=1;rounded=0;exitX=1;exitY=0.5;exitDx=0;exitDy=0;entryX=0;entryY=0.5;entryDx=0;entryDy=0;fontColor=#000000;" parent="1" source="161" target="6" edge="1">
                    <mxGeometry width="50" height="50" relative="1" as="geometry">
                        <mxPoint x="547.5" y="380" as="sourcePoint"/>
                        <mxPoint x="682.5" y="460" as="targetPoint"/>
                    </mxGeometry>
                </mxCell>
                <mxCell id="15" value="" style="endArrow=none;html=1;rounded=0;entryX=0.75;entryY=0;entryDx=0;entryDy=0;exitX=0.043;exitY=0.758;exitDx=0;exitDy=0;fontColor=#000000;strokeColor=#F0F0F0;exitPerimeter=0;" parent="1" source="165" target="6" edge="1">
                    <mxGeometry width="50" height="50" relative="1" as="geometry">
                        <mxPoint x="812.5" y="306" as="sourcePoint"/>
                        <mxPoint x="682.5" y="460" as="targetPoint"/>
                    </mxGeometry>
                </mxCell>
                <mxCell id="16" value="" style="endArrow=none;html=1;rounded=0;exitX=0.5;exitY=0;exitDx=0;exitDy=0;fontColor=#000000;strokeColor=#F0F0F0;" parent="1" source="6" target="166" edge="1">
                    <mxGeometry width="50" height="50" relative="1" as="geometry">
                        <mxPoint x="712.5" y="350" as="sourcePoint"/>
                        <mxPoint x="770.7413278287536" y="270.1692537379405" as="targetPoint"/>
                    </mxGeometry>
                </mxCell>
                <mxCell id="17" value="Escribe" style="rhombus;whiteSpace=wrap;html=1;fontColor=#000000;fillColor=#D7E5D5;" parent="1" vertex="1">
                    <mxGeometry x="557.5" y="480" width="80" height="80" as="geometry"/>
                </mxCell>
                <mxCell id="18" value="Chat" style="rounded=0;whiteSpace=wrap;html=1;fontColor=#000000;fillColor=#D8E8FF;strokeColor=none;" parent="1" vertex="1">
                    <mxGeometry x="737.5" y="856.4" width="120" height="60" as="geometry"/>
                </mxCell>
                <mxCell id="19" value="" style="endArrow=none;html=1;rounded=0;entryX=0.5;entryY=1;entryDx=0;entryDy=0;exitX=1;exitY=0;exitDx=0;exitDy=0;fontColor=#000000;strokeColor=#F0F0F0;" parent="1" source="17" target="6" edge="1">
                    <mxGeometry width="50" height="50" relative="1" as="geometry">
                        <mxPoint x="735" y="500" as="sourcePoint"/>
                        <mxPoint x="665" y="510" as="targetPoint"/>
                    </mxGeometry>
                </mxCell>
                <mxCell id="28" style="rounded=0;orthogonalLoop=1;jettySize=auto;html=1;exitX=0;exitY=0.5;exitDx=0;exitDy=0;entryX=1;entryY=0.5;entryDx=0;entryDy=0;strokeColor=#F0F0F0;endArrow=none;endFill=0;fontColor=#000000;" parent="1" source="29" target="226" edge="1">
                    <mxGeometry relative="1" as="geometry">
                        <mxPoint x="340" y="720" as="targetPoint"/>
                    </mxGeometry>
                </mxCell>
                <mxCell id="29" value="Message" style="rounded=0;whiteSpace=wrap;html=1;fontColor=#000000;fillColor=#D8E8FF;" parent="1" vertex="1">
                    <mxGeometry x="385" y="611.4" width="120" height="60" as="geometry"/>
                </mxCell>
                <mxCell id="58" value="" style="endArrow=none;html=1;rounded=0;exitX=1;exitY=0.5;exitDx=0;exitDy=0;entryX=0;entryY=0.5;entryDx=0;entryDy=0;fontColor=#000000;strokeColor=#F0F0F0;" parent="1" source="222" target="29" edge="1">
                    <mxGeometry width="50" height="50" relative="1" as="geometry">
                        <mxPoint x="340" y="500" as="sourcePoint"/>
                        <mxPoint x="410" y="551.4" as="targetPoint"/>
                    </mxGeometry>
                </mxCell>
                <mxCell id="59" value="" style="endArrow=none;html=1;rounded=0;exitX=1;exitY=0.5;exitDx=0;exitDy=0;entryX=0;entryY=0.5;entryDx=0;entryDy=0;fontColor=#000000;strokeColor=#F0F0F0;" parent="1" source="223" target="29" edge="1">
                    <mxGeometry width="50" height="50" relative="1" as="geometry">
                        <mxPoint x="340" y="556" as="sourcePoint"/>
                        <mxPoint x="395" y="651.4" as="targetPoint"/>
                    </mxGeometry>
                </mxCell>
                <mxCell id="60" value="" style="endArrow=none;html=1;rounded=0;exitX=1;exitY=0.5;exitDx=0;exitDy=0;entryX=0;entryY=0.5;entryDx=0;entryDy=0;fontColor=#000000;strokeColor=#F0F0F0;" parent="1" source="224" target="29" edge="1">
                    <mxGeometry width="50" height="50" relative="1" as="geometry">
                        <mxPoint x="340" y="610" as="sourcePoint"/>
                        <mxPoint x="395" y="651.4" as="targetPoint"/>
                    </mxGeometry>
                </mxCell>
                <mxCell id="61" value="" style="endArrow=none;html=1;rounded=0;exitX=1;exitY=0.5;exitDx=0;exitDy=0;entryX=0;entryY=0.5;entryDx=0;entryDy=0;fontColor=#000000;strokeColor=#F0F0F0;" parent="1" source="225" target="29" edge="1">
                    <mxGeometry width="50" height="50" relative="1" as="geometry">
                        <mxPoint x="340" y="666" as="sourcePoint"/>
                        <mxPoint x="395" y="651.4" as="targetPoint"/>
                    </mxGeometry>
                </mxCell>
                <mxCell id="71" value="name" style="ellipse;whiteSpace=wrap;html=1;fontColor=#000000;fillColor=#FFF1CB;" parent="1" vertex="1">
                    <mxGeometry x="772.5" y="1000" width="90" height="40" as="geometry"/>
                </mxCell>
                <mxCell id="72" value="image_url" style="ellipse;whiteSpace=wrap;html=1;fontColor=#000000;fillColor=#FFF1CB;" parent="1" vertex="1">
                    <mxGeometry x="925" y="942.4" width="90" height="40" as="geometry"/>
                </mxCell>
                <mxCell id="73" value="created_at" style="ellipse;whiteSpace=wrap;html=1;fontColor=#000000;fillColor=#FFF1CB;" parent="1" vertex="1">
                    <mxGeometry x="885" y="1000" width="90" height="40" as="geometry"/>
                </mxCell>
                <mxCell id="76" value="&lt;u&gt;id&lt;/u&gt;" style="ellipse;whiteSpace=wrap;html=1;fontColor=#000000;fillColor=#FFF1CB;" parent="1" vertex="1">
                    <mxGeometry x="680" y="960" width="90" height="40" as="geometry"/>
                </mxCell>
                <mxCell id="77" value="" style="endArrow=none;html=1;rounded=0;exitX=0.5;exitY=1;exitDx=0;exitDy=0;entryX=0.5;entryY=0;entryDx=0;entryDy=0;fontColor=#000000;strokeColor=#F0F0F0;" parent="1" source="18" target="76" edge="1">
                    <mxGeometry relative="1" as="geometry">
                        <mxPoint x="1105" y="982.4" as="sourcePoint"/>
                        <mxPoint x="1265" y="982.4" as="targetPoint"/>
                    </mxGeometry>
                </mxCell>
                <mxCell id="85" value="" style="endArrow=none;html=1;rounded=0;exitX=1;exitY=0.5;exitDx=0;exitDy=0;entryX=0;entryY=0.5;entryDx=0;entryDy=0;fontColor=#000000;strokeColor=#F0F0F0;" parent="1" source="221" target="29" edge="1">
                    <mxGeometry width="50" height="50" relative="1" as="geometry">
                        <mxPoint x="340" y="440" as="sourcePoint"/>
                        <mxPoint x="395" y="651.4" as="targetPoint"/>
                    </mxGeometry>
                </mxCell>
                <mxCell id="107" value="name" style="ellipse;whiteSpace=wrap;html=1;fontColor=#000000;fillColor=#D7E5D5;" parent="1" vertex="1">
                    <mxGeometry x="472.5" y="300" width="90" height="40" as="geometry"/>
                </mxCell>
                <mxCell id="111" value="" style="endArrow=none;html=1;rounded=0;entryX=1;entryY=0;entryDx=0;entryDy=0;exitX=0;exitY=0.5;exitDx=0;exitDy=0;fontColor=#000000;strokeColor=#F0F0F0;" parent="1" source="167" target="6" edge="1">
                    <mxGeometry width="50" height="50" relative="1" as="geometry">
                        <mxPoint x="827.5000000000025" y="355" as="sourcePoint"/>
                        <mxPoint x="772.5" y="370" as="targetPoint"/>
                    </mxGeometry>
                </mxCell>
                <mxCell id="114" value="" style="endArrow=none;html=1;rounded=0;entryX=0;entryY=1;entryDx=0;entryDy=0;exitX=1;exitY=0;exitDx=0;exitDy=0;fontColor=#000000;strokeColor=#F0F0F0;" parent="1" source="29" target="17" edge="1">
                    <mxGeometry width="50" height="50" relative="1" as="geometry">
                        <mxPoint x="585" y="642.5" as="sourcePoint"/>
                        <mxPoint x="650" y="567.5" as="targetPoint"/>
                    </mxGeometry>
                </mxCell>
                <mxCell id="115" value="" style="endArrow=none;html=1;rounded=0;exitX=0.5;exitY=1;exitDx=0;exitDy=0;entryX=0.5;entryY=0;entryDx=0;entryDy=0;fontColor=#000000;strokeColor=#F0F0F0;" parent="1" source="29" target="119" edge="1">
                    <mxGeometry width="50" height="50" relative="1" as="geometry">
                        <mxPoint x="515" y="621.4" as="sourcePoint"/>
                        <mxPoint x="445" y="722.4" as="targetPoint"/>
                    </mxGeometry>
                </mxCell>
                <mxCell id="116" value="MessageFiles" style="rounded=0;whiteSpace=wrap;html=1;fontColor=#000000;fillColor=#D8E8FF;strokeColor=none;" parent="1" vertex="1">
                    <mxGeometry x="385" y="856.4" width="120" height="60" as="geometry"/>
                </mxCell>
                <mxCell id="119" value="Contiene" style="rhombus;whiteSpace=wrap;html=1;fontColor=#000000;fillColor=#D7E5D5;" parent="1" vertex="1">
                    <mxGeometry x="405" y="721.4" width="80" height="80" as="geometry"/>
                </mxCell>
                <mxCell id="120" value="" style="endArrow=none;html=1;rounded=0;exitX=0.5;exitY=1;exitDx=0;exitDy=0;entryX=0.5;entryY=0;entryDx=0;entryDy=0;fontColor=#000000;strokeColor=#F0F0F0;" parent="1" source="119" target="116" edge="1">
                    <mxGeometry width="50" height="50" relative="1" as="geometry">
                        <mxPoint x="455" y="681.4" as="sourcePoint"/>
                        <mxPoint x="455" y="731.4" as="targetPoint"/>
                    </mxGeometry>
                </mxCell>
                <mxCell id="121" value="&lt;u&gt;id_message&lt;/u&gt;" style="ellipse;whiteSpace=wrap;html=1;fontColor=#000000;fillColor=#FFF1CB;" parent="1" vertex="1">
                    <mxGeometry x="340" y="972.4" width="90" height="40" as="geometry"/>
                </mxCell>
                <mxCell id="122" value="&lt;u&gt;id&lt;/u&gt;" style="ellipse;whiteSpace=wrap;html=1;fontColor=#000000;fillColor=#FFF1CB;" parent="1" vertex="1">
                    <mxGeometry x="255" y="942.4" width="90" height="40" as="geometry"/>
                </mxCell>
                <mxCell id="123" value="file_url" style="ellipse;whiteSpace=wrap;html=1;fontColor=#000000;fillColor=#FFF1CB;" parent="1" vertex="1">
                    <mxGeometry x="440" y="972.4" width="90" height="40" as="geometry"/>
                </mxCell>
                <mxCell id="125" style="rounded=0;orthogonalLoop=1;jettySize=auto;html=1;exitX=0;exitY=0.5;exitDx=0;exitDy=0;entryX=1;entryY=0.5;entryDx=0;entryDy=0;strokeColor=#F0F0F0;endArrow=none;endFill=0;fontColor=#000000;" parent="1" source="29" target="227" edge="1">
                    <mxGeometry relative="1" as="geometry">
                        <mxPoint x="395" y="651.4" as="sourcePoint"/>
                        <mxPoint x="340" y="780" as="targetPoint"/>
                    </mxGeometry>
                </mxCell>
                <mxCell id="126" value="size" style="ellipse;whiteSpace=wrap;html=1;fontColor=#000000;fillColor=#FFF1CB;" parent="1" vertex="1">
                    <mxGeometry x="540" y="952.4" width="90" height="40" as="geometry"/>
                </mxCell>
                <mxCell id="127" style="rounded=0;orthogonalLoop=1;jettySize=auto;html=1;exitX=0.5;exitY=1;exitDx=0;exitDy=0;entryX=1;entryY=0;entryDx=0;entryDy=0;strokeColor=#F0F0F0;endArrow=none;endFill=0;fontColor=#000000;" parent="1" source="116" target="122" edge="1">
                    <mxGeometry relative="1" as="geometry">
                        <mxPoint x="385" y="726.4" as="sourcePoint"/>
                        <mxPoint x="340.00000000000296" y="921.4" as="targetPoint"/>
                    </mxGeometry>
                </mxCell>
                <mxCell id="128" style="rounded=0;orthogonalLoop=1;jettySize=auto;html=1;exitX=0.5;exitY=1;exitDx=0;exitDy=0;entryX=0.5;entryY=0;entryDx=0;entryDy=0;strokeColor=#F0F0F0;endArrow=none;endFill=0;fontColor=#000000;" parent="1" source="116" target="121" edge="1">
                    <mxGeometry relative="1" as="geometry">
                        <mxPoint x="455" y="926.4" as="sourcePoint"/>
                        <mxPoint x="326.7153074572568" y="958.2115729796484" as="targetPoint"/>
                    </mxGeometry>
                </mxCell>
                <mxCell id="129" style="rounded=0;orthogonalLoop=1;jettySize=auto;html=1;exitX=0.5;exitY=1;exitDx=0;exitDy=0;entryX=0.5;entryY=0;entryDx=0;entryDy=0;strokeColor=#F0F0F0;endArrow=none;endFill=0;fontColor=#000000;" parent="1" source="116" target="123" edge="1">
                    <mxGeometry relative="1" as="geometry">
                        <mxPoint x="455" y="926.4" as="sourcePoint"/>
                        <mxPoint x="390" y="982.4" as="targetPoint"/>
                    </mxGeometry>
                </mxCell>
                <mxCell id="130" style="rounded=0;orthogonalLoop=1;jettySize=auto;html=1;exitX=0.5;exitY=1;exitDx=0;exitDy=0;entryX=0;entryY=0;entryDx=0;entryDy=0;strokeColor=#F0F0F0;endArrow=none;endFill=0;fontColor=#000000;" parent="1" source="116" target="126" edge="1">
                    <mxGeometry relative="1" as="geometry">
                        <mxPoint x="495" y="890" as="sourcePoint"/>
                        <mxPoint x="545" y="946" as="targetPoint"/>
                    </mxGeometry>
                </mxCell>
                <mxCell id="132" value="" style="endArrow=none;html=1;rounded=0;entryX=0.5;entryY=1;entryDx=0;entryDy=0;exitX=0;exitY=0;exitDx=0;exitDy=0;fontColor=#000000;strokeColor=#F0F0F0;" parent="1" source="133" target="6" edge="1">
                    <mxGeometry width="50" height="50" relative="1" as="geometry">
                        <mxPoint x="740" y="506" as="sourcePoint"/>
                        <mxPoint x="704.9999999999998" y="450" as="targetPoint"/>
                    </mxGeometry>
                </mxCell>
                <mxCell id="133" value="Es" style="rhombus;whiteSpace=wrap;html=1;fontColor=#000000;fillColor=#D7E5D5;strokeColor=none;" parent="1" vertex="1">
                    <mxGeometry x="800" y="470" width="80" height="80" as="geometry"/>
                </mxCell>
                <mxCell id="134" value="Members" style="rounded=0;whiteSpace=wrap;html=1;fillColor=#D8E8FF;fontColor=#000000;strokeColor=none;" parent="1" vertex="1">
                    <mxGeometry x="862.5" y="575" width="120" height="60" as="geometry"/>
                </mxCell>
                <mxCell id="135" value="" style="endArrow=none;html=1;rounded=0;entryX=1;entryY=1;entryDx=0;entryDy=0;exitX=0.5;exitY=0;exitDx=0;exitDy=0;fontColor=#000000;strokeColor=#F0F0F0;" parent="1" source="134" target="133" edge="1">
                    <mxGeometry width="50" height="50" relative="1" as="geometry">
                        <mxPoint x="654.9999999999998" y="585" as="sourcePoint"/>
                        <mxPoint x="699.9999999999998" y="540" as="targetPoint"/>
                    </mxGeometry>
                </mxCell>
                <mxCell id="138" value="roles" style="ellipse;whiteSpace=wrap;html=1;fontColor=#000000;fillColor=#FFF1CB;" parent="1" vertex="1">
                    <mxGeometry x="1030" y="635" width="90" height="40" as="geometry"/>
                </mxCell>
                <mxCell id="139" value="" style="endArrow=none;html=1;rounded=0;entryX=1;entryY=0.5;entryDx=0;entryDy=0;exitX=0;exitY=0.5;exitDx=0;exitDy=0;fontColor=#000000;strokeColor=#F0F0F0;" parent="1" source="168" target="134" edge="1">
                    <mxGeometry width="50" height="50" relative="1" as="geometry">
                        <mxPoint x="1030.000000000004" y="550" as="sourcePoint"/>
                        <mxPoint x="889.9999999999998" y="540" as="targetPoint"/>
                    </mxGeometry>
                </mxCell>
                <mxCell id="140" value="" style="endArrow=none;html=1;rounded=0;entryX=1;entryY=0.5;entryDx=0;entryDy=0;exitX=0;exitY=0.5;exitDx=0;exitDy=0;fontColor=#000000;strokeColor=#F0F0F0;" parent="1" source="169" target="134" edge="1">
                    <mxGeometry width="50" height="50" relative="1" as="geometry">
                        <mxPoint x="1030.000000000004" y="615" as="sourcePoint"/>
                        <mxPoint x="992.5" y="615" as="targetPoint"/>
                    </mxGeometry>
                </mxCell>
                <mxCell id="141" value="" style="endArrow=none;html=1;rounded=0;entryX=1;entryY=0.5;entryDx=0;entryDy=0;exitX=0;exitY=0.5;exitDx=0;exitDy=0;fontColor=#000000;strokeColor=#F0F0F0;" parent="1" source="138" target="134" edge="1">
                    <mxGeometry width="50" height="50" relative="1" as="geometry">
                        <mxPoint x="1049.9999999999998" y="626" as="sourcePoint"/>
                        <mxPoint x="992.5" y="615" as="targetPoint"/>
                    </mxGeometry>
                </mxCell>
                <mxCell id="142" value="" style="endArrow=none;html=1;rounded=0;exitX=0;exitY=0.5;exitDx=0;exitDy=0;entryX=1;entryY=1;entryDx=0;entryDy=0;fontColor=#000000;strokeColor=#F0F0F0;" parent="1" source="18" target="143" edge="1">
                    <mxGeometry width="50" height="50" relative="1" as="geometry">
                        <mxPoint x="700" y="781.4" as="sourcePoint"/>
                        <mxPoint x="720" y="799.6" as="targetPoint"/>
                    </mxGeometry>
                </mxCell>
                <mxCell id="143" value="Tiene" style="rhombus;whiteSpace=wrap;html=1;fontColor=#000000;fillColor=#D7E5D5;strokeColor=none;" parent="1" vertex="1">
                    <mxGeometry x="572.5" y="776.4" width="80" height="80" as="geometry"/>
                </mxCell>
                <mxCell id="144" value="" style="endArrow=none;html=1;rounded=0;exitX=0;exitY=0;exitDx=0;exitDy=0;entryX=1;entryY=1;entryDx=0;entryDy=0;fontColor=#000000;strokeColor=#F0F0F0;" parent="1" source="143" target="29" edge="1">
                    <mxGeometry width="50" height="50" relative="1" as="geometry">
                        <mxPoint x="700" y="696" as="sourcePoint"/>
                        <mxPoint x="655" y="675" as="targetPoint"/>
                    </mxGeometry>
                </mxCell>
                <mxCell id="152" value="name" style="ellipse;whiteSpace=wrap;html=1;fontColor=#000000;fillColor=#D7E5D5;" parent="1" vertex="1">
                    <mxGeometry x="472.5" y="300" width="90" height="40" as="geometry"/>
                </mxCell>
                <mxCell id="161" value="&lt;u&gt;id&lt;/u&gt;" style="ellipse;whiteSpace=wrap;html=1;fontColor=#000000;fillColor=#FFF1CB;" parent="1" vertex="1">
                    <mxGeometry x="470" y="360" width="90" height="40" as="geometry"/>
                </mxCell>
                <mxCell id="162" value="name" style="ellipse;whiteSpace=wrap;html=1;fontColor=#000000;fillColor=#FFF1CB;" parent="1" vertex="1">
                    <mxGeometry x="472.5" y="300" width="90" height="40" as="geometry"/>
                </mxCell>
                <mxCell id="163" value="last_name" style="ellipse;whiteSpace=wrap;html=1;fontColor=#000000;fillColor=#FFF1CB;strokeColor=none;" parent="1" vertex="1">
                    <mxGeometry x="515" y="246" width="90" height="40" as="geometry"/>
                </mxCell>
                <mxCell id="164" value="email" style="ellipse;whiteSpace=wrap;html=1;fontColor=#000000;fillColor=#FFF1CB;strokeColor=none;" parent="1" vertex="1">
                    <mxGeometry x="605" y="220" width="90" height="40" as="geometry"/>
                </mxCell>
                <mxCell id="165" value="phone" style="ellipse;whiteSpace=wrap;html=1;fontColor=#000000;fillColor=#FFF1CB;strokeColor=none;" parent="1" vertex="1">
                    <mxGeometry x="795" y="246" width="90" height="40" as="geometry"/>
                </mxCell>
                <mxCell id="166" value="password" style="ellipse;whiteSpace=wrap;html=1;fontColor=#000000;fillColor=#FFF1CB;strokeColor=none;" parent="1" vertex="1">
                    <mxGeometry x="706.5" y="220" width="90" height="40" as="geometry"/>
                </mxCell>
                <mxCell id="167" value="profile_picture_url" style="ellipse;whiteSpace=wrap;html=1;fontColor=#000000;fillColor=#FFF1CB;strokeColor=none;" parent="1" vertex="1">
                    <mxGeometry x="819" y="295" width="120" height="40" as="geometry"/>
                </mxCell>
                <mxCell id="168" value="&lt;u&gt;id_chat&lt;/u&gt;" style="ellipse;whiteSpace=wrap;html=1;fontColor=#000000;fillColor=#FFF1CB;strokeColor=none;" parent="1" vertex="1">
                    <mxGeometry x="1030" y="536.4" width="90" height="40" as="geometry"/>
                </mxCell>
                <mxCell id="169" value="&lt;u&gt;id_user&lt;/u&gt;" style="ellipse;whiteSpace=wrap;html=1;fontColor=#000000;fillColor=#FFF1CB;strokeColor=none;" parent="1" vertex="1">
                    <mxGeometry x="1030" y="585" width="90" height="40" as="geometry"/>
                </mxCell>
                <mxCell id="170" value="Manda" style="rhombus;whiteSpace=wrap;html=1;fontColor=#000000;fillColor=#D7E5D5;strokeColor=none;" parent="1" vertex="1">
                    <mxGeometry x="880" y="410" width="80" height="80" as="geometry"/>
                </mxCell>
                <mxCell id="171" value="" style="endArrow=none;html=1;rounded=0;entryX=0.5;entryY=1;entryDx=0;entryDy=0;exitX=0;exitY=0.5;exitDx=0;exitDy=0;fontColor=#000000;strokeColor=#F0F0F0;" parent="1" source="170" target="6" edge="1">
                    <mxGeometry width="50" height="50" relative="1" as="geometry">
                        <mxPoint x="812.5" y="510" as="sourcePoint"/>
                        <mxPoint x="705" y="450" as="targetPoint"/>
                    </mxGeometry>
                </mxCell>
                <mxCell id="172" value="Reports" style="rounded=0;whiteSpace=wrap;html=1;fillColor=#D8E8FF;fontColor#fff;fontColor=#000000;strokeColor=none;" parent="1" vertex="1">
                    <mxGeometry x="1015" y="420" width="120" height="60" as="geometry"/>
                </mxCell>
                <mxCell id="173" value="" style="endArrow=none;html=1;rounded=0;entryX=1;entryY=0.5;entryDx=0;entryDy=0;exitX=0;exitY=0.5;exitDx=0;exitDy=0;fontColor=#000000;strokeColor=#F0F0F0;" parent="1" source="172" target="170" edge="1">
                    <mxGeometry width="50" height="50" relative="1" as="geometry">
                        <mxPoint x="892.5" y="470" as="sourcePoint"/>
                        <mxPoint x="765" y="435" as="targetPoint"/>
                    </mxGeometry>
                </mxCell>
                <mxCell id="174" value="message" style="ellipse;whiteSpace=wrap;html=1;fontColor=#000000;fillColor=#FFF1CB;strokeColor=none;" parent="1" vertex="1">
                    <mxGeometry x="1190" y="430" width="90" height="40" as="geometry"/>
                </mxCell>
                <mxCell id="175" value="&lt;u&gt;id_user&lt;/u&gt;" style="ellipse;whiteSpace=wrap;html=1;fontColor=#000000;fillColor=#FFF1CB;strokeColor=none;" parent="1" vertex="1">
                    <mxGeometry x="1190" y="330" width="90" height="40" as="geometry"/>
                </mxCell>
                <mxCell id="176" value="&lt;u&gt;id_reporter&lt;/u&gt;" style="ellipse;whiteSpace=wrap;html=1;fontColor=#000000;fillColor=#FFF1CB;strokeColor=none;" parent="1" vertex="1">
                    <mxGeometry x="1190" y="380" width="90" height="40" as="geometry"/>
                </mxCell>
                <mxCell id="177" value="date" style="ellipse;whiteSpace=wrap;html=1;fontColor=#000000;fillColor=#FFF1CB;strokeColor=none;" parent="1" vertex="1">
                    <mxGeometry x="1190" y="480" width="90" height="40" as="geometry"/>
                </mxCell>
                <mxCell id="178" value="type" style="ellipse;whiteSpace=wrap;html=1;fontColor=#000000;fillColor=#FFF1CB;strokeColor=none;" parent="1" vertex="1">
                    <mxGeometry x="1190" y="530" width="90" height="40" as="geometry"/>
                </mxCell>
                <mxCell id="179" value="" style="endArrow=none;html=1;rounded=0;entryX=1;entryY=0.5;entryDx=0;entryDy=0;exitX=0;exitY=0.5;exitDx=0;exitDy=0;fontColor=#000000;strokeColor=#F0F0F0;" parent="1" source="175" target="172" edge="1">
                    <mxGeometry width="50" height="50" relative="1" as="geometry">
                        <mxPoint x="1039.9999999999943" y="560" as="sourcePoint"/>
                        <mxPoint x="992.5" y="605" as="targetPoint"/>
                    </mxGeometry>
                </mxCell>
                <mxCell id="180" value="" style="endArrow=none;html=1;rounded=0;entryX=1;entryY=0.5;entryDx=0;entryDy=0;exitX=0;exitY=0.5;exitDx=0;exitDy=0;fontColor=#000000;strokeColor=#F0F0F0;" parent="1" source="176" target="172" edge="1">
                    <mxGeometry width="50" height="50" relative="1" as="geometry">
                        <mxPoint x="1199.9999999999943" y="365" as="sourcePoint"/>
                        <mxPoint x="1145" y="460" as="targetPoint"/>
                    </mxGeometry>
                </mxCell>
                <mxCell id="181" value="" style="endArrow=none;html=1;rounded=0;entryX=1;entryY=0.5;entryDx=0;entryDy=0;exitX=0;exitY=0.5;exitDx=0;exitDy=0;fontColor=#000000;strokeColor=#F0F0F0;" parent="1" source="174" target="172" edge="1">
                    <mxGeometry width="50" height="50" relative="1" as="geometry">
                        <mxPoint x="1199.9999999999943" y="420" as="sourcePoint"/>
                        <mxPoint x="1145" y="460" as="targetPoint"/>
                    </mxGeometry>
                </mxCell>
                <mxCell id="182" value="" style="endArrow=none;html=1;rounded=0;entryX=1;entryY=0.5;entryDx=0;entryDy=0;exitX=0;exitY=0.5;exitDx=0;exitDy=0;fontColor=#000000;strokeColor=#F0F0F0;" parent="1" source="177" target="172" edge="1">
                    <mxGeometry width="50" height="50" relative="1" as="geometry">
                        <mxPoint x="1199.9999999999943" y="470" as="sourcePoint"/>
                        <mxPoint x="1145" y="460" as="targetPoint"/>
                    </mxGeometry>
                </mxCell>
                <mxCell id="183" value="" style="endArrow=none;html=1;rounded=0;entryX=1;entryY=0.5;entryDx=0;entryDy=0;exitX=0;exitY=0.5;exitDx=0;exitDy=0;fontColor=#000000;strokeColor=#F0F0F0;" parent="1" source="178" target="172" edge="1">
                    <mxGeometry width="50" height="50" relative="1" as="geometry">
                        <mxPoint x="1199.9999999999943" y="520" as="sourcePoint"/>
                        <mxPoint x="1145" y="460" as="targetPoint"/>
                    </mxGeometry>
                </mxCell>
                <mxCell id="186" value="MessageStatus" style="rounded=0;whiteSpace=wrap;html=1;fontColor=#000000;fillColor=#D8E8FF;strokeColor=none;" parent="1" vertex="1">
                    <mxGeometry x="652.5" y="610" width="120" height="60" as="geometry"/>
                </mxCell>
                <mxCell id="187" value="" style="endArrow=none;html=1;rounded=0;entryX=0.5;entryY=1;entryDx=0;entryDy=0;fontColor=#000000;exitX=0.5;exitY=0;exitDx=0;exitDy=0;strokeColor=#F0F0F0;" parent="1" source="188" target="186" edge="1">
                    <mxGeometry width="50" height="50" relative="1" as="geometry">
                        <mxPoint x="800" y="696" as="sourcePoint"/>
                        <mxPoint x="992.5" y="615" as="targetPoint"/>
                    </mxGeometry>
                </mxCell>
                <mxCell id="188" value="status" style="ellipse;whiteSpace=wrap;html=1;fontColor=#000000;fillColor=#FFF1CB;strokeColor=none;" parent="1" vertex="1">
                    <mxGeometry x="619.5" y="700" width="90" height="40" as="geometry"/>
                </mxCell>
                <mxCell id="189" value="&lt;u&gt;id_message&lt;/u&gt;" style="ellipse;whiteSpace=wrap;html=1;fontColor=#000000;fillColor=#FFF1CB;strokeColor=none;" parent="1" vertex="1">
                    <mxGeometry x="720" y="716.4" width="90" height="40" as="geometry"/>
                </mxCell>
                <mxCell id="190" value="Tiene" style="rhombus;whiteSpace=wrap;html=1;fontColor=#000000;fillColor=#D7E5D5;strokeColor=none;" parent="1" vertex="1">
                    <mxGeometry x="672.5" y="470" width="80" height="80" as="geometry"/>
                </mxCell>
                <mxCell id="191" value="" style="endArrow=none;html=1;rounded=0;entryX=0.5;entryY=1;entryDx=0;entryDy=0;exitX=0.5;exitY=0;exitDx=0;exitDy=0;fontColor=#000000;strokeColor=#F0F0F0;" parent="1" source="190" target="6" edge="1">
                    <mxGeometry width="50" height="50" relative="1" as="geometry">
                        <mxPoint x="812.5" y="510" as="sourcePoint"/>
                        <mxPoint x="705" y="450" as="targetPoint"/>
                    </mxGeometry>
                </mxCell>
                <mxCell id="192" value="" style="endArrow=none;html=1;rounded=0;entryX=0.5;entryY=1;entryDx=0;entryDy=0;exitX=0.5;exitY=0;exitDx=0;exitDy=0;fontColor=#000000;strokeColor=#F0F0F0;" parent="1" source="186" target="190" edge="1">
                    <mxGeometry width="50" height="50" relative="1" as="geometry">
                        <mxPoint x="640" y="500" as="sourcePoint"/>
                        <mxPoint x="705" y="450" as="targetPoint"/>
                    </mxGeometry>
                </mxCell>
                <mxCell id="194" value="Tiene" style="rhombus;whiteSpace=wrap;html=1;fontColor=#000000;fillColor=#D7E5D5;" parent="1" vertex="1">
                    <mxGeometry x="540" y="600" width="80" height="80" as="geometry"/>
                </mxCell>
                <mxCell id="195" value="" style="endArrow=none;html=1;rounded=0;exitX=0;exitY=0.5;exitDx=0;exitDy=0;fontColor=#000000;entryX=0.999;entryY=0.481;entryDx=0;entryDy=0;entryPerimeter=0;strokeColor=#F0F0F0;" parent="1" source="194" target="29" edge="1">
                    <mxGeometry width="50" height="50" relative="1" as="geometry">
                        <mxPoint x="520" y="642.4" as="sourcePoint"/>
                        <mxPoint x="500" y="640" as="targetPoint"/>
                    </mxGeometry>
                </mxCell>
                <mxCell id="196" value="" style="endArrow=none;html=1;rounded=0;entryX=1;entryY=0.5;entryDx=0;entryDy=0;exitX=0;exitY=0.5;exitDx=0;exitDy=0;fontColor=#000000;strokeColor=#F0F0F0;" parent="1" source="186" target="194" edge="1">
                    <mxGeometry width="50" height="50" relative="1" as="geometry">
                        <mxPoint x="570" y="616" as="sourcePoint"/>
                        <mxPoint x="555" y="615" as="targetPoint"/>
                    </mxGeometry>
                </mxCell>
                <mxCell id="197" value="Tiene" style="rhombus;whiteSpace=wrap;html=1;fontColor=#000000;fillColor=#D7E5D5;strokeColor=none;" parent="1" vertex="1">
                    <mxGeometry x="885" y="730" width="80" height="80" as="geometry"/>
                </mxCell>
                <mxCell id="198" value="" style="endArrow=none;html=1;rounded=0;exitX=0.5;exitY=0;exitDx=0;exitDy=0;entryX=0;entryY=1;entryDx=0;entryDy=0;fontColor=#000000;strokeColor=#F0F0F0;" parent="1" source="18" target="197" edge="1">
                    <mxGeometry width="50" height="50" relative="1" as="geometry">
                        <mxPoint x="845" y="902.4000000000001" as="sourcePoint"/>
                        <mxPoint x="650" y="812.4000000000001" as="targetPoint"/>
                    </mxGeometry>
                </mxCell>
                <mxCell id="199" value="" style="endArrow=none;html=1;rounded=0;exitX=0.521;exitY=0.917;exitDx=0;exitDy=0;entryX=0.5;entryY=0;entryDx=0;entryDy=0;fontColor=#000000;exitPerimeter=0;strokeColor=#F0F0F0;" parent="1" source="134" target="197" edge="1">
                    <mxGeometry width="50" height="50" relative="1" as="geometry">
                        <mxPoint x="905" y="872.4000000000001" as="sourcePoint"/>
                        <mxPoint x="925" y="812.4000000000001" as="targetPoint"/>
                    </mxGeometry>
                </mxCell>
                <mxCell id="200" value="" style="endArrow=none;html=1;rounded=0;entryX=0.5;entryY=1;entryDx=0;entryDy=0;fontColor=#000000;exitX=0.322;exitY=0.045;exitDx=0;exitDy=0;exitPerimeter=0;strokeColor=#F0F0F0;" parent="1" source="189" target="186" edge="1">
                    <mxGeometry width="50" height="50" relative="1" as="geometry">
                        <mxPoint x="707.5" y="720" as="sourcePoint"/>
                        <mxPoint x="720" y="680" as="targetPoint"/>
                    </mxGeometry>
                </mxCell>
                <mxCell id="201" value="&lt;u&gt;id_user&lt;/u&gt;" style="ellipse;whiteSpace=wrap;html=1;fontColor=#000000;fillColor=#FFF1CB;strokeColor=none;" parent="1" vertex="1">
                    <mxGeometry x="790" y="676.4" width="90" height="40" as="geometry"/>
                </mxCell>
                <mxCell id="202" value="" style="endArrow=none;html=1;rounded=0;entryX=0.5;entryY=1;entryDx=0;entryDy=0;fontColor=#000000;exitX=0;exitY=0.5;exitDx=0;exitDy=0;strokeColor=#F0F0F0;" parent="1" source="201" target="186" edge="1">
                    <mxGeometry width="50" height="50" relative="1" as="geometry">
                        <mxPoint x="753.1801948466057" y="732.2578643762693" as="sourcePoint"/>
                        <mxPoint x="720" y="680" as="targetPoint"/>
                    </mxGeometry>
                </mxCell>
                <mxCell id="204" value="&lt;font color=&quot;#ffffff&quot; style=&quot;font-size: 6px;&quot;&gt;1&lt;/font&gt;" style="text;html=1;align=center;verticalAlign=middle;resizable=0;points=[];autosize=1;strokeColor=none;fillColor=none;fontColor=#000000;strokeWidth=1;fontSize=6;" parent="1" vertex="1">
                    <mxGeometry x="683.5" y="405" width="30" height="20" as="geometry"/>
                </mxCell>
                <mxCell id="205" value="&lt;font color=&quot;#ffffff&quot; style=&quot;font-size: 6px;&quot;&gt;1&lt;/font&gt;" style="text;html=1;align=center;verticalAlign=middle;resizable=0;points=[];autosize=1;strokeColor=none;fillColor=none;fontColor=#000000;strokeWidth=1;fontSize=6;" parent="1" vertex="1">
                    <mxGeometry x="692" y="413" width="30" height="20" as="geometry"/>
                </mxCell>
                <mxCell id="206" value="&lt;font color=&quot;#ffffff&quot; style=&quot;font-size: 6px;&quot;&gt;1&lt;/font&gt;" style="text;html=1;align=center;verticalAlign=middle;resizable=0;points=[];autosize=1;strokeColor=none;fillColor=none;fontColor=#000000;strokeWidth=1;fontSize=6;" parent="1" vertex="1">
                    <mxGeometry x="706.5" y="414" width="30" height="20" as="geometry"/>
                </mxCell>
                <mxCell id="207" value="&lt;font color=&quot;#ffffff&quot; style=&quot;font-size: 6px;&quot;&gt;1&lt;/font&gt;" style="text;html=1;align=center;verticalAlign=middle;resizable=0;points=[];autosize=1;strokeColor=none;fillColor=none;fontColor=#000000;strokeWidth=1;fontSize=6;" parent="1" vertex="1">
                    <mxGeometry x="729.5" y="404" width="30" height="20" as="geometry"/>
                </mxCell>
                <mxCell id="208" value="&lt;font color=&quot;#ffffff&quot; style=&quot;font-size: 6px;&quot;&gt;N&lt;/font&gt;" style="text;html=1;align=center;verticalAlign=middle;resizable=0;points=[];autosize=1;strokeColor=none;fillColor=none;fontColor=#000000;strokeWidth=1;fontSize=6;" parent="1" vertex="1">
                    <mxGeometry x="485" y="590" width="30" height="20" as="geometry"/>
                </mxCell>
                <mxCell id="209" value="&lt;font color=&quot;#ffffff&quot; style=&quot;font-size: 6px;&quot;&gt;N&lt;/font&gt;" style="text;html=1;align=center;verticalAlign=middle;resizable=0;points=[];autosize=1;strokeColor=none;fillColor=none;fontColor=#000000;strokeWidth=1;fontSize=6;" parent="1" vertex="1">
                    <mxGeometry x="685" y="590" width="30" height="20" as="geometry"/>
                </mxCell>
                <mxCell id="210" value="&lt;font color=&quot;#ffffff&quot; style=&quot;font-size: 6px;&quot;&gt;N&lt;/font&gt;" style="text;html=1;align=center;verticalAlign=middle;resizable=0;points=[];autosize=1;strokeColor=none;fillColor=none;fontColor=#000000;strokeWidth=1;fontSize=6;" parent="1" vertex="1">
                    <mxGeometry x="909" y="557" width="30" height="20" as="geometry"/>
                </mxCell>
                <mxCell id="211" value="&lt;font color=&quot;#ffffff&quot; style=&quot;font-size: 6px;&quot;&gt;N&lt;/font&gt;" style="text;html=1;align=center;verticalAlign=middle;resizable=0;points=[];autosize=1;strokeColor=none;fillColor=none;fontColor=#000000;strokeWidth=1;fontSize=6;" parent="1" vertex="1">
                    <mxGeometry x="990" y="434" width="30" height="20" as="geometry"/>
                </mxCell>
                <mxCell id="212" value="&lt;font color=&quot;#ffffff&quot; style=&quot;font-size: 6px;&quot;&gt;1&lt;/font&gt;" style="text;html=1;align=center;verticalAlign=middle;resizable=0;points=[];autosize=1;strokeColor=none;fillColor=none;fontColor=#000000;strokeWidth=1;fontSize=6;" parent="1" vertex="1">
                    <mxGeometry x="810" y="840" width="30" height="20" as="geometry"/>
                </mxCell>
                <mxCell id="213" value="&lt;font color=&quot;#ffffff&quot; style=&quot;font-size: 6px;&quot;&gt;N&lt;/font&gt;" style="text;html=1;align=center;verticalAlign=middle;resizable=0;points=[];autosize=1;strokeColor=none;fillColor=none;fontColor=#000000;strokeWidth=1;fontSize=6;" parent="1" vertex="1">
                    <mxGeometry x="917.5" y="632.4" width="30" height="20" as="geometry"/>
                </mxCell>
                <mxCell id="214" value="&lt;font color=&quot;#ffffff&quot; style=&quot;font-size: 6px;&quot;&gt;1&lt;/font&gt;" style="text;html=1;align=center;verticalAlign=middle;resizable=0;points=[];autosize=1;strokeColor=none;fillColor=none;fontColor=#000000;strokeWidth=1;fontSize=6;" parent="1" vertex="1">
                    <mxGeometry x="715" y="867" width="30" height="20" as="geometry"/>
                </mxCell>
                <mxCell id="215" value="&lt;font color=&quot;#ffffff&quot; style=&quot;font-size: 6px;&quot;&gt;N&lt;/font&gt;" style="text;html=1;align=center;verticalAlign=middle;resizable=0;points=[];autosize=1;strokeColor=none;fillColor=none;fontColor=#000000;strokeWidth=1;fontSize=6;" parent="1" vertex="1">
                    <mxGeometry x="498" y="662" width="30" height="20" as="geometry"/>
                </mxCell>
                <mxCell id="217" value="&lt;font color=&quot;#ffffff&quot; style=&quot;font-size: 6px;&quot;&gt;1&lt;/font&gt;" style="text;html=1;align=center;verticalAlign=middle;resizable=0;points=[];autosize=1;strokeColor=none;fillColor=none;fontColor=#000000;strokeWidth=1;fontSize=6;" parent="1" vertex="1">
                    <mxGeometry x="495" y="625" width="30" height="20" as="geometry"/>
                </mxCell>
                <mxCell id="218" value="&lt;font color=&quot;#ffffff&quot; style=&quot;font-size: 6px;&quot;&gt;N&lt;/font&gt;" style="text;html=1;align=center;verticalAlign=middle;resizable=0;points=[];autosize=1;strokeColor=none;fillColor=none;fontColor=#000000;strokeWidth=1;fontSize=6;" parent="1" vertex="1">
                    <mxGeometry x="630" y="625" width="30" height="20" as="geometry"/>
                </mxCell>
                <mxCell id="219" value="&lt;font color=&quot;#ffffff&quot; style=&quot;font-size: 6px;&quot;&gt;1&lt;/font&gt;" style="text;html=1;align=center;verticalAlign=middle;resizable=0;points=[];autosize=1;strokeColor=none;fillColor=none;fontColor=#000000;strokeWidth=1;fontSize=6;" parent="1" vertex="1">
                    <mxGeometry x="435" y="669" width="30" height="20" as="geometry"/>
                </mxCell>
                <mxCell id="220" value="&lt;font color=&quot;#ffffff&quot; style=&quot;font-size: 6px;&quot;&gt;N&lt;/font&gt;" style="text;html=1;align=center;verticalAlign=middle;resizable=0;points=[];autosize=1;strokeColor=none;fillColor=none;fontColor=#000000;strokeWidth=1;fontSize=6;" parent="1" vertex="1">
                    <mxGeometry x="435" y="838.4" width="30" height="20" as="geometry"/>
                </mxCell>
                <mxCell id="221" value="&lt;u&gt;id&lt;/u&gt;" style="ellipse;whiteSpace=wrap;html=1;fontColor=#000000;fillColor=#FFF1CB;strokeColor=none;" parent="1" vertex="1">
                    <mxGeometry x="250" y="417" width="90" height="40" as="geometry"/>
                </mxCell>
                <mxCell id="222" value="&lt;u&gt;id_chat&lt;/u&gt;" style="ellipse;whiteSpace=wrap;html=1;fontColor=#000000;fillColor=#FFF1CB;strokeColor=none;" parent="1" vertex="1">
                    <mxGeometry x="250" y="465" width="90" height="40" as="geometry"/>
                </mxCell>
                <mxCell id="223" value="&lt;u&gt;id_user&lt;/u&gt;" style="ellipse;whiteSpace=wrap;html=1;fontColor=#000000;fillColor=#FFF1CB;strokeColor=none;" parent="1" vertex="1">
                    <mxGeometry x="250" y="513" width="90" height="40" as="geometry"/>
                </mxCell>
                <mxCell id="224" value="datetime" style="ellipse;whiteSpace=wrap;html=1;fontColor=#000000;fillColor=#FFF1CB;strokeColor=none;" parent="1" vertex="1">
                    <mxGeometry x="250" y="562" width="90" height="40" as="geometry"/>
                </mxCell>
                <mxCell id="225" value="message" style="ellipse;whiteSpace=wrap;html=1;fontColor=#000000;fillColor=#FFF1CB;strokeColor=none;" parent="1" vertex="1">
                    <mxGeometry x="250" y="611" width="90" height="40" as="geometry"/>
                </mxCell>
                <mxCell id="226" value="last_edit_date" style="ellipse;whiteSpace=wrap;html=1;fontColor=#000000;fillColor=#FFF1CB;strokeColor=none;" parent="1" vertex="1">
                    <mxGeometry x="250" y="658" width="90" height="40" as="geometry"/>
                </mxCell>
                <mxCell id="227" value="&lt;u&gt;responding_to&lt;/u&gt;" style="ellipse;whiteSpace=wrap;html=1;fontColor=#000000;fillColor=#FFF1CB;strokeColor=none;" parent="1" vertex="1">
                    <mxGeometry x="250" y="850.4" width="90" height="40" as="geometry"/>
                </mxCell>
                <mxCell id="228" value="Message" style="rounded=0;whiteSpace=wrap;html=1;fontColor=#000000;fillColor=#D8E8FF;strokeColor=none;" parent="1" vertex="1">
                    <mxGeometry x="385" y="611.4" width="120" height="60" as="geometry"/>
                </mxCell>
                <mxCell id="229" value="Contiene" style="rhombus;whiteSpace=wrap;html=1;fontColor=#000000;fillColor=#D7E5D5;strokeColor=none;" parent="1" vertex="1">
                    <mxGeometry x="405" y="721.4" width="80" height="80" as="geometry"/>
                </mxCell>
                <mxCell id="230" value="Tiene" style="rhombus;whiteSpace=wrap;html=1;fontColor=#000000;fillColor=#D7E5D5;strokeColor=none;" parent="1" vertex="1">
                    <mxGeometry x="540" y="600" width="80" height="80" as="geometry"/>
                </mxCell>
                <mxCell id="231" value="Escribe" style="rhombus;whiteSpace=wrap;html=1;fontColor=#000000;fillColor=#D7E5D5;strokeColor=none;" parent="1" vertex="1">
                    <mxGeometry x="557.5" y="480" width="80" height="80" as="geometry"/>
                </mxCell>
                <mxCell id="232" value="&lt;u&gt;id&lt;/u&gt;" style="ellipse;whiteSpace=wrap;html=1;fontColor=#000000;fillColor=#FFF1CB;strokeColor=none;" parent="1" vertex="1">
                    <mxGeometry x="470" y="360" width="90" height="40" as="geometry"/>
                </mxCell>
                <mxCell id="233" value="" style="endArrow=none;html=1;rounded=0;exitX=1;exitY=0.5;exitDx=0;exitDy=0;entryX=0;entryY=0.5;entryDx=0;entryDy=0;fontColor=#000000;strokeColor=#F0F0F0;" parent="1" edge="1">
                    <mxGeometry width="50" height="50" relative="1" as="geometry">
                        <mxPoint x="560.04" y="379.41" as="sourcePoint"/>
                        <mxPoint x="652.54" y="379.41" as="targetPoint"/>
                    </mxGeometry>
                </mxCell>
                <mxCell id="234" value="" style="endArrow=none;html=1;rounded=0;entryX=0.944;entryY=0.65;entryDx=0;entryDy=0;exitX=0;exitY=0;exitDx=0;exitDy=0;entryPerimeter=0;fontColor=#000000;strokeColor=#F0F0F0;" parent="1" edge="1">
                    <mxGeometry width="50" height="50" relative="1" as="geometry">
                        <mxPoint x="652.54" y="349.41" as="sourcePoint"/>
                        <mxPoint x="557.5" y="325.41" as="targetPoint"/>
                    </mxGeometry>
                </mxCell>
                <mxCell id="235" value="" style="endArrow=none;html=1;rounded=0;entryX=1;entryY=1;entryDx=0;entryDy=0;exitX=0.15;exitY=0.033;exitDx=0;exitDy=0;exitPerimeter=0;fontColor=#000000;strokeColor=#F0F0F0;" parent="1" target="163" edge="1">
                    <mxGeometry width="50" height="50" relative="1" as="geometry">
                        <mxPoint x="670.54" y="351.38999999999993" as="sourcePoint"/>
                        <mxPoint x="592.54" y="275.41" as="targetPoint"/>
                    </mxGeometry>
                </mxCell>
                <mxCell id="236" value="" style="endArrow=none;html=1;rounded=0;entryX=0.997;entryY=0.353;entryDx=0;entryDy=0;fontColor=#000000;strokeColor=#F0F0F0;exitX=0;exitY=0.5;exitDx=0;exitDy=0;entryPerimeter=0;" parent="1" source="237" target="6" edge="1">
                    <mxGeometry width="50" height="50" relative="1" as="geometry">
                        <mxPoint x="820" y="370" as="sourcePoint"/>
                        <mxPoint x="782.5" y="360" as="targetPoint"/>
                    </mxGeometry>
                </mxCell>
                <mxCell id="237" value="role" style="ellipse;whiteSpace=wrap;html=1;fontColor=#000000;fillColor=#FFF1CB;strokeColor=none;" parent="1" vertex="1">
                    <mxGeometry x="819" y="350" width="120" height="40" as="geometry"/>
                </mxCell>
                <mxCell id="238" value="pinned" style="ellipse;whiteSpace=wrap;html=1;fontColor=#000000;fillColor=#FFF1CB;strokeColor=none;" parent="1" vertex="1">
                    <mxGeometry x="250" y="706" width="90" height="40" as="geometry"/>
                </mxCell>
                <mxCell id="239" style="rounded=0;orthogonalLoop=1;jettySize=auto;html=1;exitX=0;exitY=0.5;exitDx=0;exitDy=0;entryX=1;entryY=0.5;entryDx=0;entryDy=0;strokeColor=#F0F0F0;endArrow=none;endFill=0;fontColor=#000000;" parent="1" source="228" target="238" edge="1">
                    <mxGeometry relative="1" as="geometry">
                        <mxPoint x="395" y="651.4000000000001" as="sourcePoint"/>
                        <mxPoint x="350" y="730" as="targetPoint"/>
                    </mxGeometry>
                </mxCell>
                <mxCell id="240" value="deletes_at" style="ellipse;whiteSpace=wrap;html=1;fontColor=#000000;fillColor=#FFF1CB;strokeColor=none;" parent="1" vertex="1">
                    <mxGeometry x="250" y="754" width="90" height="40" as="geometry"/>
                </mxCell>
                <mxCell id="241" value="forwaded" style="ellipse;whiteSpace=wrap;html=1;fontColor=#000000;fillColor=#FFF1CB;strokeColor=none;" parent="1" vertex="1">
                    <mxGeometry x="250" y="802.4" width="90" height="40" as="geometry"/>
                </mxCell>
                <mxCell id="242" style="rounded=0;orthogonalLoop=1;jettySize=auto;html=1;exitX=0;exitY=0.5;exitDx=0;exitDy=0;entryX=1;entryY=0.5;entryDx=0;entryDy=0;strokeColor=#F0F0F0;endArrow=none;endFill=0;fontColor=#000000;" parent="1" source="228" target="240" edge="1">
                    <mxGeometry relative="1" as="geometry">
                        <mxPoint x="395" y="651.4000000000001" as="sourcePoint"/>
                        <mxPoint x="350" y="750" as="targetPoint"/>
                    </mxGeometry>
                </mxCell>
                <mxCell id="243" style="rounded=0;orthogonalLoop=1;jettySize=auto;html=1;exitX=0;exitY=0.5;exitDx=0;exitDy=0;entryX=1;entryY=0.5;entryDx=0;entryDy=0;strokeColor=#F0F0F0;endArrow=none;endFill=0;fontColor=#000000;" parent="1" source="228" target="241" edge="1">
                    <mxGeometry relative="1" as="geometry">
                        <mxPoint x="395" y="651.4000000000001" as="sourcePoint"/>
                        <mxPoint x="350" y="800" as="targetPoint"/>
                    </mxGeometry>
                </mxCell>
            </root>
        </mxGraphModel>
    </diagram>
</mxfile>